<?xml version="1.0" standalone="no"?>
<!DOCTYPE svg PUBLIC "-//W3C//DTD SVG 20010904//EN"
 "http://www.w3.org/TR/2001/REC-SVG-20010904/DTD/svg10.dtd">
<svg version="1.0" xmlns="http://www.w3.org/2000/svg"
 width="256.000000pt" height="256.000000pt" viewBox="0 0 256.000000 256.000000"
 preserveAspectRatio="xMidYMid meet">

<g transform="translate(0.000000,256.000000) scale(0.100000,-0.100000)"
fill="#80868b" stroke="none">
<path d="M107 2453 c-12 -11 -8 -40 7 -52 22 -18 46 -2 46 30 0 24 -4 29 -23
29 -13 0 -27 -3 -30 -7z"/>
<path d="M362 2448 c-16 -16 -15 -23 4 -42 21 -22 56 -3 52 27 -3 25 -37 34
-56 15z"/>
<path d="M617 2453 c-14 -13 -7 -43 12 -53 23 -12 56 14 47 37 -3 8 -6 17 -6
19 0 7 -46 5 -53 -3z"/>
<path d="M877 2454 c-12 -12 -8 -41 8 -54 20 -17 47 5 43 34 -3 21 -37 34 -51
20z"/>
<path d="M1125 2439 c-10 -30 19 -53 47 -38 29 15 20 53 -14 57 -20 2 -28 -2
-33 -19z"/>
<path d="M1387 2453 c-22 -22 7 -68 36 -57 21 8 30 34 16 50 -12 15 -41 19
-52 7z"/>
<path d="M1641 2447 c-14 -17 -6 -43 16 -51 22 -9 45 13 41 38 -4 25 -40 33
-57 13z"/>
<path d="M1897 2453 c-14 -13 -7 -43 12 -53 23 -12 56 14 47 37 -3 8 -6 17 -6
19 0 7 -46 5 -53 -3z"/>
<path d="M2150 2445 c-11 -14 -10 -19 8 -37 18 -18 23 -19 37 -8 22 18 15 54
-11 58 -11 2 -27 -4 -34 -13z"/>
<path d="M2405 2439 c-10 -30 19 -53 47 -38 29 15 20 53 -14 57 -20 2 -28 -2
-33 -19z"/>
<path d="M112 2201 c-8 -4 -12 -19 -10 -32 2 -18 9 -24 28 -24 21 0 25 5 25
30 0 31 -19 42 -43 26z"/>
<path d="M360 2190 c-9 -16 -8 -25 1 -36 27 -33 75 -2 52 35 -15 24 -40 25
-53 1z"/>
<path d="M620 2195 c-18 -22 -8 -50 19 -50 32 0 49 28 32 49 -17 20 -35 20
-51 1z"/>
<path d="M882 2201 c-8 -4 -12 -19 -10 -32 4 -34 52 -34 56 0 3 20 -11 41 -28
41 -3 0 -11 -4 -18 -9z"/>
<path d="M1131 2196 c-17 -20 -4 -56 18 -56 28 0 47 28 34 48 -14 23 -37 26
-52 8z"/>
<path d="M1390 2195 c-16 -20 -9 -49 14 -53 27 -6 48 25 35 49 -12 23 -32 24
-49 4z"/>
<path d="M1644 2196 c-15 -12 -17 -18 -8 -33 15 -24 58 -24 62 0 4 18 -14 47
-27 47 -4 0 -16 -6 -27 -14z"/>
<path d="M1900 2195 c-18 -22 -8 -50 19 -50 32 0 49 28 32 49 -17 20 -35 20
-51 1z"/>
<path d="M2156 2194 c-22 -21 -3 -56 27 -52 37 5 33 67 -5 68 -4 0 -14 -7 -22
-16z"/>
<path d="M2411 2196 c-17 -20 -4 -56 18 -56 28 0 47 28 34 48 -14 23 -37 26
-52 8z"/>
<path d="M103 1934 c-8 -22 9 -49 33 -49 30 0 27 59 -4 63 -14 2 -25 -3 -29
-14z"/>
<path d="M361 1936 c-9 -11 -10 -20 -1 -36 13 -24 38 -23 53 1 23 37 -25 68
-52 35z"/>
<path d="M614 1935 c-14 -37 26 -69 53 -42 22 22 8 57 -23 57 -14 0 -27 -7
-30 -15z"/>
<path d="M877 1944 c-13 -13 -7 -52 9 -58 22 -9 46 13 42 38 -3 21 -37 34 -51
20z"/>
<path d="M1130 1935 c-26 -31 18 -71 47 -42 19 19 8 57 -16 57 -10 0 -24 -7
-31 -15z"/>
<path d="M1387 1943 c-22 -22 7 -68 36 -57 21 8 30 34 16 50 -12 15 -41 19
-52 7z"/>
<path d="M1641 1936 c-9 -11 -10 -20 -1 -36 13 -24 38 -23 53 1 23 37 -25 68
-52 35z"/>
<path d="M1893 1934 c-8 -20 8 -48 30 -52 22 -5 42 35 26 54 -16 19 -48 18
-56 -2z"/>
<path d="M2151 1931 c-8 -15 -7 -23 5 -35 26 -27 58 -12 52 25 -4 31 -42 38
-57 10z"/>
<path d="M2410 1935 c-26 -31 18 -71 47 -42 19 19 8 57 -16 57 -10 0 -24 -7
-31 -15z"/>
<path d="M115 1686 c-25 -18 -15 -51 15 -51 20 0 26 6 28 26 4 31 -18 44 -43
25z"/>
<path d="M365 1684 c-18 -18 -16 -33 7 -47 35 -22 66 21 36 51 -16 16 -23 15
-43 -4z"/>
<path d="M627 1689 c-22 -13 -22 -48 -1 -56 20 -8 48 8 52 30 4 21 -29 38 -51
26z"/>
<path d="M880 1685 c-19 -23 -8 -50 20 -50 19 0 26 6 28 24 5 35 -26 53 -48
26z"/>
<path d="M1135 1686 c-25 -18 -11 -56 20 -56 21 0 35 17 35 40 0 19 -37 30
-55 16z"/>
<path d="M1395 1686 c-22 -16 -15 -50 11 -54 25 -4 47 19 38 41 -8 22 -29 28
-49 13z"/>
<path d="M1646 1684 c-10 -9 -15 -23 -12 -31 3 -8 6 -17 6 -19 0 -2 11 -4 25
-4 29 0 43 25 28 48 -14 23 -29 25 -47 6z"/>
<path d="M1905 1686 c-25 -18 -15 -50 16 -54 28 -3 43 16 33 42 -8 21 -30 26
-49 12z"/>
<path d="M2155 1684 c-18 -18 -16 -33 7 -47 35 -22 66 21 36 51 -16 16 -23 15
-43 -4z"/>
<path d="M2415 1686 c-20 -14 -14 -51 10 -60 17 -6 45 19 45 39 0 23 -34 36
-55 21z"/>
<path d="M112 1431 c-8 -4 -12 -19 -10 -32 2 -18 9 -24 28 -24 21 0 25 5 25
30 0 31 -19 42 -43 26z"/>
<path d="M361 1426 c-26 -31 14 -71 45 -45 21 17 14 53 -12 57 -11 2 -26 -4
-33 -12z"/>
<path d="M620 1426 c-27 -33 18 -72 48 -42 13 13 14 20 6 34 -15 23 -38 26
-54 8z"/>
<path d="M874 1426 c-11 -29 0 -51 26 -51 21 0 25 5 25 30 0 24 -5 31 -23 33
-13 2 -24 -3 -28 -12z"/>
<path d="M1130 1426 c-27 -33 18 -72 48 -42 13 13 14 20 6 34 -15 23 -38 26
-54 8z"/>
<path d="M1392 1431 c-20 -12 -11 -55 12 -59 27 -6 48 25 35 49 -10 20 -26 24
-47 10z"/>
<path d="M1639 1424 c-16 -20 -1 -48 29 -52 16 -2 23 3 28 22 3 14 3 30 -1 35
-9 16 -41 13 -56 -5z"/>
<path d="M1900 1426 c-27 -33 18 -72 48 -42 13 13 14 20 6 34 -15 23 -38 26
-54 8z"/>
<path d="M2151 1422 c-13 -25 8 -56 35 -50 29 5 27 62 -3 66 -13 2 -26 -4 -32
-16z"/>
<path d="M2410 1426 c-27 -33 18 -72 48 -42 13 13 14 20 6 34 -15 23 -38 26
-54 8z"/>
<path d="M107 1174 c-23 -23 7 -69 37 -58 25 10 17 58 -9 62 -12 2 -24 0 -28
-4z"/>
<path d="M361 1167 c-14 -17 -6 -43 16 -51 22 -9 45 13 41 38 -4 25 -40 33
-57 13z"/>
<path d="M617 1173 c-12 -11 -8 -40 7 -52 26 -22 63 10 50 44 -6 15 -45 21
-57 8z"/>
<path d="M877 1174 c-12 -12 -8 -41 8 -54 20 -17 47 5 43 34 -3 21 -37 34 -51
20z"/>
<path d="M1124 1158 c-7 -22 19 -52 40 -45 17 6 29 34 23 51 -10 24 -54 21
-63 -6z"/>
<path d="M1387 1173 c-12 -11 -8 -40 7 -52 26 -22 63 10 50 44 -6 15 -45 21
-57 8z"/>
<path d="M1641 1167 c-24 -29 17 -70 46 -46 20 17 12 53 -13 57 -11 2 -26 -3
-33 -11z"/>
<path d="M1897 1173 c-12 -11 -8 -40 7 -52 26 -22 63 10 50 44 -6 15 -45 21
-57 8z"/>
<path d="M2151 1167 c-24 -29 17 -70 46 -46 20 17 12 53 -13 57 -11 2 -26 -3
-33 -11z"/>
<path d="M2403 1164 c-8 -22 10 -49 32 -49 22 0 40 27 32 49 -8 21 -56 21 -64
0z"/>
<path d="M111 916 c-20 -24 -9 -51 19 -51 21 0 25 5 25 30 0 34 -24 45 -44 21z"/>
<path d="M360 910 c-9 -16 -8 -25 1 -36 27 -33 75 -2 52 35 -15 24 -40 25 -53
1z"/>
<path d="M621 916 c-17 -20 -4 -56 18 -56 28 0 47 28 34 48 -14 23 -37 26 -52
8z"/>
<path d="M882 921 c-8 -4 -12 -19 -10 -32 2 -18 9 -24 28 -24 19 0 26 6 28 24
3 20 -11 41 -28 41 -3 0 -11 -4 -18 -9z"/>
<path d="M1129 914 c-16 -20 -1 -48 29 -52 25 -4 39 32 22 53 -16 19 -34 19
-51 -1z"/>
<path d="M1392 921 c-20 -12 -11 -55 12 -59 27 -6 48 25 35 49 -10 20 -26 24
-47 10z"/>
<path d="M1639 914 c-17 -21 0 -49 32 -49 27 0 37 28 19 50 -16 19 -34 19 -51
-1z"/>
<path d="M1900 915 c-18 -22 -8 -50 19 -50 32 0 49 28 32 49 -17 20 -35 20
-51 1z"/>
<path d="M2156 914 c-22 -21 -3 -56 27 -52 37 5 33 67 -5 68 -4 0 -14 -7 -22
-16z"/>
<path d="M2411 916 c-17 -20 -4 -56 18 -56 28 0 47 28 34 48 -14 23 -37 26
-52 8z"/>
<path d="M107 664 c-15 -16 -7 -53 14 -59 27 -9 42 6 37 36 -3 24 -36 38 -51
23z"/>
<path d="M361 656 c-9 -11 -10 -20 -1 -36 13 -24 38 -23 53 1 23 37 -25 68
-52 35z"/>
<path d="M613 654 c-15 -39 38 -67 60 -32 8 12 7 21 -2 32 -17 21 -50 20 -58
0z"/>
<path d="M877 664 c-13 -13 -7 -52 8 -58 27 -10 46 5 43 33 -3 26 -35 41 -51
25z"/>
<path d="M1131 656 c-26 -31 14 -71 45 -45 8 7 14 22 12 33 -4 26 -40 33 -57
12z"/>
<path d="M1383 654 c-8 -20 8 -48 30 -52 22 -5 42 35 26 54 -16 19 -48 18 -56
-2z"/>
<path d="M1641 656 c-9 -11 -10 -20 -1 -36 13 -24 38 -23 53 1 23 37 -25 68
-52 35z"/>
<path d="M1893 654 c-8 -20 8 -48 30 -52 19 -4 39 30 31 52 -8 21 -53 21 -61
0z"/>
<path d="M2150 651 c-7 -15 -6 -24 6 -36 9 -9 21 -14 27 -12 18 6 31 33 24 51
-9 22 -44 20 -57 -3z"/>
<path d="M2405 650 c-7 -23 10 -50 30 -50 20 0 37 27 30 50 -4 13 -15 20 -30
20 -15 0 -26 -7 -30 -20z"/>
<path d="M110 405 c-19 -23 -8 -50 20 -50 19 0 26 6 28 24 5 35 -26 53 -48 26z"/>
<path d="M366 404 c-10 -9 -15 -23 -12 -31 3 -8 6 -17 6 -19 0 -2 11 -4 25 -4
29 0 43 25 28 48 -14 23 -29 25 -47 6z"/>
<path d="M625 406 c-25 -18 -15 -50 16 -54 28 -3 43 16 33 42 -8 21 -30 26
-49 12z"/>
<path d="M882 411 c-8 -4 -12 -19 -10 -32 2 -18 9 -24 28 -24 28 0 39 27 20
50 -14 17 -20 18 -38 6z"/>
<path d="M1136 407 c-26 -19 -13 -57 20 -57 28 0 42 25 27 48 -13 22 -26 24
-47 9z"/>
<path d="M1392 408 c-30 -30 1 -73 36 -51 23 14 25 29 7 47 -20 19 -27 20 -43
4z"/>
<path d="M1645 404 c-18 -18 -16 -33 7 -47 35 -22 66 21 36 51 -16 16 -23 15
-43 -4z"/>
<path d="M1900 405 c-18 -21 -8 -50 19 -53 37 -6 52 26 25 52 -19 20 -28 20
-44 1z"/>
<path d="M2156 405 c-20 -21 -5 -55 25 -55 24 0 36 27 22 48 -14 23 -29 25
-47 7z"/>
<path d="M2415 406 c-12 -9 -15 -19 -10 -35 9 -30 59 -26 63 6 4 29 -28 47
-53 29z"/>
<path d="M104 146 c-10 -25 0 -51 20 -54 27 -6 48 25 35 49 -12 22 -47 25 -55
5z"/>
<path d="M361 146 c-17 -20 3 -56 29 -56 25 0 39 48 19 61 -20 13 -35 11 -48
-5z"/>
<path d="M620 146 c-27 -33 18 -72 48 -42 13 13 14 20 6 34 -15 23 -38 26 -54
8z"/>
<path d="M874 146 c-11 -29 0 -51 26 -51 21 0 25 5 25 30 0 24 -5 31 -23 33
-13 2 -24 -3 -28 -12z"/>
<path d="M1130 146 c-27 -33 18 -72 48 -42 13 13 14 20 6 34 -15 23 -38 26
-54 8z"/>
<path d="M1384 146 c-10 -25 0 -51 20 -54 27 -6 48 25 35 49 -12 22 -47 25
-55 5z"/>
<path d="M1639 144 c-16 -20 -1 -48 29 -52 16 -3 23 3 28 23 10 41 -30 61 -57
29z"/>
<path d="M1900 146 c-27 -33 18 -72 48 -42 13 13 14 20 6 34 -15 23 -38 26
-54 8z"/>
<path d="M2151 142 c-13 -25 8 -56 35 -50 29 5 27 62 -3 66 -13 2 -26 -4 -32
-16z"/>
<path d="M2410 146 c-27 -33 18 -72 48 -42 13 13 14 20 6 34 -15 23 -38 26
-54 8z"/>
</g>
</svg>
